<?xml version="1.0" encoding="UTF-8" standalone="no"?><!DOCTYPE svg PUBLIC "-//W3C//DTD SVG 1.1//EN" "http://www.w3.org/Graphics/SVG/1.1/DTD/svg11.dtd"><svg width="100%" height="100%" viewBox="0 0 16 16" version="1.1" xmlns="http://www.w3.org/2000/svg" xmlns:xlink="http://www.w3.org/1999/xlink" xml:space="preserve" xmlns:serif="http://www.serif.com/" style="fill-rule:evenodd;clip-rule:evenodd;stroke-linejoin:round;stroke-miterlimit:2;"><path d="M7.986,15c-1.821,0.001 -2.308,-0.35 -2.095,-0.701c0.214,-0.352 1.133,-0.705 2.117,-0.702l0.011,-0c0.979,0 1.892,0.351 2.105,0.702c0.214,0.352 -0.278,0.704 -2.116,0.701l-0.022,-0Zm0.014,-14l0.008,0l0.077,0.003c3.25,0.12 3.456,0.693 4.045,0.902c0.913,0.325 1.719,-0.474 2.191,-0.273c0.982,0.42 0.669,1.253 0.449,1.601c-0.493,0.781 -1.195,1.035 -1.675,1.08c-0.624,0.059 -0.897,1.196 -0.128,1.37c3.182,0.72 4.617,6.619 0.493,7.886c-0.228,0.07 -0.159,0.739 -0.296,0.887c-0.365,0.394 -1.055,0.427 -1.541,0.174c-0.599,-0.31 -0.338,-1.042 -0.565,-1.29c-0.602,-0.659 -1.859,-1.06 -3.05,-1.06c-0,-0 -0,-0 -0,-0l-0.008,-0l-0.008,-0l0,-0c-1.191,-0 -2.448,0.401 -3.05,1.06c-0.227,0.248 0.034,0.98 -0.565,1.29c-0.486,0.253 -1.176,0.22 -1.541,-0.174c-0.137,-0.148 -0.068,-0.817 -0.296,-0.887c-4.124,-1.267 -2.689,-7.166 0.493,-7.886c0.769,-0.174 0.496,-1.311 -0.128,-1.37c-0.48,-0.045 -1.182,-0.299 -1.675,-1.08c-0.22,-0.348 -0.533,-1.181 0.449,-1.601c0.472,-0.201 1.278,0.598 2.191,0.273c0.589,-0.209 0.795,-0.782 4.045,-0.902l0.077,-0.003l0.008,0Zm6.809,8.434c-0.673,-1.881 -5.361,-0.099 -4.389,1.6c0.336,0.589 2.986,0.357 3.335,0.223c0.842,-0.324 1.336,-1.032 1.054,-1.823Zm-13.618,0c0.673,-1.881 5.361,-0.099 4.389,1.6c-0.336,0.589 -2.986,0.357 -3.335,0.223c-0.842,-0.324 -1.336,-1.032 -1.054,-1.823Z" style="fill:#049ebd;"/></svg>