<?xml version="1.0" encoding="UTF-8" standalone="no"?><!DOCTYPE svg PUBLIC "-//W3C//DTD SVG 1.1//EN" "http://www.w3.org/Graphics/SVG/1.1/DTD/svg11.dtd"><svg width="100%" height="100%" viewBox="0 0 16 16" version="1.1" xmlns="http://www.w3.org/2000/svg" xmlns:xlink="http://www.w3.org/1999/xlink" xml:space="preserve" xmlns:serif="http://www.serif.com/" style="fill-rule:evenodd;clip-rule:evenodd;stroke-linejoin:round;stroke-miterlimit:2;"><path d="M6.065,1.181c0.313,-0.712 1.081,-1.181 1.935,-1.181c0.854,0 1.622,0.469 1.935,1.181l0.909,2.067c0.025,0.056 0.07,0.103 0.128,0.133c0.058,0.03 0.126,0.042 0.192,0.033l2.449,-0.327c0.845,-0.113 1.681,0.249 2.108,0.913c0.427,0.664 0.359,1.494 -0.172,2.094l-1.541,1.74c-0.041,0.047 -0.064,0.106 -0.064,0.166c-0,0.06 0.023,0.119 0.064,0.166l1.541,1.74c0.531,0.6 0.599,1.43 0.172,2.094c-0.427,0.664 -1.263,1.026 -2.108,0.913l-2.449,-0.327c-0.066,-0.009 -0.134,0.003 -0.192,0.033c-0.058,0.03 -0.103,0.077 -0.128,0.133l-0.909,2.067c-0.313,0.712 -1.081,1.181 -1.935,1.181c-0.854,0 -1.622,-0.469 -1.935,-1.181l-0.909,-2.067c-0.025,-0.056 -0.07,-0.103 -0.128,-0.133c-0.058,-0.03 -0.126,-0.042 -0.192,-0.033l-2.449,0.327c-0.845,0.113 -1.681,-0.249 -2.108,-0.913c-0.427,-0.664 -0.359,-1.494 0.172,-2.094l1.541,-1.74c0.041,-0.047 0.064,-0.106 0.064,-0.166c0,-0.06 -0.023,-0.119 -0.064,-0.166l-1.541,-1.74c-0.531,-0.6 -0.599,-1.43 -0.172,-2.094c0.427,-0.664 1.263,-1.026 2.108,-0.913l2.449,0.327c0.066,0.009 0.134,-0.003 0.192,-0.033c0.058,-0.03 0.103,-0.077 0.128,-0.133l0.909,-2.067Zm4.164,6.819c-0,-1.104 -0.999,-2 -2.229,-2c-1.23,0 -2.229,0.896 -2.229,2c0,1.104 0.999,2 2.229,2c1.23,0 2.229,-0.896 2.229,-2Z" style="fill:#999;"/></svg>